<svg width="900" height="1100" viewBox="0 0 900 1100" fill="none" xmlns="http://www.w3.org/2000/svg">
  <defs>
    <linearGradient id="bg2" x1="100" y1="70" x2="818" y2="1044" gradientUnits="userSpaceOnUse">
      <stop stop-color="#FFFDF8"/>
      <stop offset="1" stop-color="#EFE0CD"/>
    </linearGradient>
  </defs>
  <rect width="900" height="1100" fill="url(#bg2)"/>
  <rect x="90" y="416" width="720" height="420" rx="18" fill="#E7D7C4"/>
  <rect x="90" y="416" width="720" height="70" fill="#D8C0A9"/>
  <g>
    <ellipse cx="235" cy="515" rx="82" ry="37" fill="#7D4934"/>
    <ellipse cx="235" cy="509" rx="70" ry="29" fill="#A85F42"/>
    <circle cx="208" cy="506" r="9" fill="#6D8744"/>
    <circle cx="253" cy="517" r="8" fill="#D0BF70"/>
  </g>
  <g>
    <ellipse cx="442" cy="520" rx="88" ry="39" fill="#C37C3A"/>
    <ellipse cx="442" cy="514" rx="75" ry="30" fill="#E5A957"/>
    <circle cx="440" cy="507" r="17" fill="#FFF0BC"/>
  </g>
  <g>
    <ellipse cx="648" cy="518" rx="90" ry="40" fill="#7A7C44"/>
    <ellipse cx="648" cy="512" rx="76" ry="31" fill="#9DA167"/>
    <circle cx="617" cy="507" r="8" fill="#ECE0A4"/>
    <circle cx="671" cy="518" r="9" fill="#E2D17E"/>
  </g>
  <g>
    <ellipse cx="250" cy="655" rx="84" ry="52" fill="#F3E8DA"/>
    <path d="M174 660C183 625 208 597 250 597C292 597 316 625 326 660H174Z" fill="#FFF7E3"/>
    <circle cx="250" cy="660" r="17" fill="#EFC158"/>
  </g>
  <g>
    <ellipse cx="470" cy="661" rx="110" ry="56" fill="#303236"/>
    <ellipse cx="470" cy="655" rx="92" ry="44" fill="#1E1F21"/>
    <circle cx="430" cy="651" r="18" fill="#C16D46"/>
    <circle cx="471" cy="669" r="18" fill="#D7C47E"/>
    <circle cx="516" cy="646" r="19" fill="#76904A"/>
  </g>
  <g>
    <ellipse cx="690" cy="655" rx="94" ry="54" fill="#E8E3DA"/>
    <ellipse cx="690" cy="649" rx="78" ry="42" fill="#F8F4ED"/>
    <circle cx="661" cy="645" r="12" fill="#D47048"/>
    <circle cx="708" cy="649" r="13" fill="#6C8744"/>
    <circle cx="728" cy="670" r="10" fill="#D9C175"/>
  </g>
  <g>
    <rect x="126" y="802" width="156" height="20" rx="10" fill="#D7B98A"/>
    <rect x="350" y="802" width="198" height="20" rx="10" fill="#D7B98A"/>
    <rect x="620" y="802" width="126" height="20" rx="10" fill="#D7B98A"/>
  </g>
  <path d="M0 980C159 924 328 897 530 913C674 924 800 952 900 993V1100H0V980Z" fill="#E1D2BF"/>
</svg>
