<svg width="900" height="1100" viewBox="0 0 900 1100" fill="none" xmlns="http://www.w3.org/2000/svg">
  <defs>
    <linearGradient id="bg3" x1="76" y1="90" x2="796" y2="1030" gradientUnits="userSpaceOnUse">
      <stop stop-color="#FCF8F2"/>
      <stop offset="1" stop-color="#E7D8C7"/>
    </linearGradient>
  </defs>
  <rect width="900" height="1100" fill="url(#bg3)"/>
  <rect x="112" y="206" width="678" height="678" rx="42" fill="#F7F0E6"/>
  <rect x="152" y="248" width="264" height="238" rx="22" fill="#2E3034"/>
  <ellipse cx="286" cy="366" rx="100" ry="74" fill="#C57243"/>
  <ellipse cx="286" cy="369" rx="82" ry="57" fill="#DA9760"/>
  <circle cx="255" cy="347" r="14" fill="#6C8744"/>
  <circle cx="318" cy="385" r="12" fill="#D9C276"/>
  <rect x="478" y="248" width="264" height="238" rx="22" fill="#E8DED0"/>
  <ellipse cx="610" cy="365" rx="92" ry="66" fill="#FFF4DE"/>
  <circle cx="610" cy="366" r="23" fill="#EFC156"/>
  <rect x="152" y="548" width="590" height="266" rx="26" fill="#D8C0A7"/>
  <ellipse cx="286" cy="682" rx="96" ry="44" fill="#7C4A36"/>
  <ellipse cx="286" cy="676" rx="80" ry="34" fill="#9C5E43"/>
  <ellipse cx="450" cy="686" rx="104" ry="50" fill="#7B854A"/>
  <ellipse cx="450" cy="680" rx="86" ry="38" fill="#98A260"/>
  <ellipse cx="614" cy="686" rx="104" ry="50" fill="#ECE7DE"/>
  <ellipse cx="614" cy="680" rx="86" ry="38" fill="#FBF8F3"/>
  <circle cx="580" cy="676" r="13" fill="#D66B47"/>
  <circle cx="636" cy="690" r="12" fill="#78904A"/>
  <circle cx="296" cy="677" r="11" fill="#6E8947"/>
  <circle cx="261" cy="692" r="10" fill="#D5C06F"/>
  <circle cx="441" cy="673" r="14" fill="#E9D78E"/>
  <circle cx="470" cy="696" r="11" fill="#D47048"/>
  <path d="M0 986C181 924 383 904 583 921C713 931 826 955 900 982V1100H0V986Z" fill="#E0D0BD"/>
</svg>
