<?xml version="1.0" encoding="UTF-8" standalone="no"?>
<!-- Created with Inkscape (http://www.inkscape.org/) -->

<svg
   version="1.1"
   id="svg1"
   width="6666.6665"
   height="3736.1868"
   viewBox="0 0 6666.6665 3736.1868"
   sodipodi:docname="vecteezy_wondrous-nut-of-nature-exploring-the-symbolism-of-the-walnut_26170444-0.eps"
   xmlns:inkscape="http://www.inkscape.org/namespaces/inkscape"
   xmlns:sodipodi="http://sodipodi.sourceforge.net/DTD/sodipodi-0.dtd"
   xmlns="http://www.w3.org/2000/svg"
   xmlns:svg="http://www.w3.org/2000/svg">
  <defs
     id="defs1" />
  <sodipodi:namedview
     id="namedview1"
     pagecolor="#ffffff"
     bordercolor="#000000"
     borderopacity="0.25"
     inkscape:showpageshadow="2"
     inkscape:pageopacity="0.0"
     inkscape:pagecheckerboard="0"
     inkscape:deskcolor="#d1d1d1">
    <inkscape:page
       x="0"
       y="0"
       inkscape:label="1"
       id="page1"
       width="6666.6665"
       height="3736.1868"
       margin="0"
       bleed="0" />
  </sodipodi:namedview>
  <g
     id="g1"
     inkscape:groupmode="layer"
     inkscape:label="1">
    <g
       id="group-R5">
      <path
         id="path2"
         d="m 36184.7,10032.2 c 448.3,-397.7 963,-855.79 1291.9,-1356.76 321.7,-490.25 -162.3,-879.63 -583.3,-1028.27 -872.8,-307.5 -1909.9,-527.77 -2616,-1045.32 C 33888.9,6316.28 33463.4,5896.2 33140.8,5650.1 31444,4354.29 29213,3988.79 27153.5,4455.65 c -950,215.08 -2035.6,495.78 -3256.8,842.11 -2308,655.46 -4590.2,1653.99 -6433.3,3199.32 -1961,1643.72 -2948.3,3912.72 -3440.5,6373.82 -143.8,719.7 -150.1,1376.7 -16.1,2070.1 79.9,416.2 371.9,969.8 342.1,1382.1 -37.5,520.5 -72.6,1012.2 17.1,1531.2 138.4,800.2 783.6,1019.5 1430.3,1324.1 33,15.3 51.4,51.7 44.3,87.7 -79.4,397.6 -324.5,1164.2 -84.7,1515.6 114,167.3 280,249.5 498,246.6 469.1,-6.2 907.4,-43.1 1314.8,-110.7 214.4,-35.7 385,24.3 511.7,179.9 1861.6,2290.4 4869.4,1885.9 7272.9,854.7 2043.4,-876.2 4041.4,-1935.1 6009.3,-2970.2 539.6,-283.7 1063.2,-593.8 1570.6,-930.3 1441.6,-956.7 2546.3,-2266.1 3237.4,-3849.5 848.9,-1943.9 586.7,-4122.3 -10.3,-6084.8 -9.2,-30.5 0.3,-63.8 24.4,-85.2 z m -20885.5,6426.9 c 121.9,-1373.3 1560.9,-2930.8 2625.3,-3785.6 1775.3,-1425.9 3666.1,-2764.14 5662.7,-3863.56 1018.1,-560.91 2080.4,-915.69 3223.2,-1056.53 1523.1,-187.13 2990.6,-75.21 4402.6,335.77 1019.8,297.27 1690.2,504.22 2011.2,620.86 1004.8,364.52 1894.2,346 2935.6,178.36 16.3,-2.6 18.1,1.3 5.4,11.7 -415.7,336.74 -1211.5,685.18 -1041.9,1336.3 215.9,827.9 431.8,1610.1 535.6,2506.3 317.2,2742.2 -1237.8,5197.4 -3524.9,6577.5 -579.9,349.9 -1170.7,680.3 -1772.4,991.2 -1450.6,749.5 -2908.7,1484.2 -4374.3,2204.2 -1949.3,957.6 -4466.8,1991.2 -6465.9,516.6 -354.2,-261.2 -714.9,-659.4 -1034.1,-1011.7 -183.2,-202.1 -412.2,-272.1 -687.1,-210.1 -424.6,95.9 -851.7,193.8 -1281.2,293.9 -15.6,3.9 -19.3,-1.3 -11.2,-15.6 169.6,-291.9 459.1,-684.7 497.1,-994.6 145.2,-1185.2 -1870.9,-533.2 -1848.5,-1965 6.9,-446.3 187.2,-973.6 144.8,-1426.9 -38.4,-414.2 -39,-828.6 -2,-1243.1 z m 399.1,-3700.8 c 914.8,-2305.1 2948.9,-4112.1 5157.5,-5145.73 2136.9,-999.51 4248,-1661.3 6491.7,-2039.47 1663.7,-280.22 3390.8,-16.08 4774.3,1010.23 635,471.25 1153.5,1154.49 1906,1385.48 843.1,258.77 1874.3,401.07 2808,534.6 9,1.35 15.8,9.19 15.8,18.32 0,8.94 -6.5,16.67 -15.3,18.23 -1119.9,205.65 -2354.3,192.5 -3445.5,-153.02 -1273.3,-402.53 -2520.4,-856.24 -3878.6,-1007.31 -1094.2,-121.83 -2183.4,-87.56 -3267.6,102.83 -1364.5,238.79 -2495.6,815.3 -3644.2,1521.44 -1572.1,966.21 -3089.8,2011 -4553.1,3134.5 -1297.3,996.6 -2502.5,2268 -2991.7,3869.4 -29.3,96.5 -63.6,312.4 -102.9,647.7 -1.9,16.5 -4.5,16.7 -7.8,0.4 -204.6,-963.9 131.6,-2066.2 428.9,-2979 120.8,-372 229,-678.2 324.5,-918.6"
         style="fill:#230a01;fill-opacity:1;fill-rule:nonzero;stroke:none"
         transform="matrix(0.13333333,0,0,-0.13333333,0,3736.1867)" />
      <path
         id="path3"
         d="m 17924.5,12673.5 c -1064.4,854.8 -2503.4,2412.3 -2625.3,3785.6 -37,414.5 -36.4,828.9 2,1243.1 42.4,453.3 -137.9,980.6 -144.8,1426.9 -22.4,1431.8 1993.7,779.8 1848.5,1965 -38,309.9 -327.5,702.7 -497.1,994.6 -8.1,14.3 -4.4,19.5 11.2,15.6 429.5,-100.1 856.6,-198 1281.2,-293.9 274.9,-62 503.9,8 687.1,210.1 319.2,352.3 679.9,750.5 1034.1,1011.7 1999.1,1474.6 4516.6,441 6465.9,-516.6 1465.6,-720 2923.7,-1454.7 4374.3,-2204.2 601.7,-310.9 1192.5,-641.3 1772.4,-991.2 2287.1,-1380.1 3842.1,-3835.3 3524.9,-6577.5 -103.8,-896.2 -319.7,-1678.4 -535.6,-2506.3 -169.6,-651.12 626.2,-999.56 1041.9,-1336.3 12.7,-10.4 10.9,-14.3 -5.4,-11.7 -1041.4,167.64 -1930.8,186.16 -2935.6,-178.36 -321,-116.64 -991.4,-323.59 -2011.2,-620.86 -1412,-410.98 -2879.5,-522.9 -4402.6,-335.77 -1142.8,140.84 -2205.1,495.62 -3223.2,1056.53 -1996.6,1099.42 -3887.4,2437.66 -5662.7,3863.56 z m 15751.9,-1988.8 c 57.8,394.4 53.8,788.3 -12.2,1181.8 -36.4,388.9 -45,648 -25.8,777.3 450.8,3036 -1892.3,5680.3 -4301.7,7116.9 -422.6,252.1 -851.2,493.7 -1285.5,724.7 -445,236.3 -743.2,685.2 -1164.3,967.3 -597.7,400.3 -1258.1,624.3 -1981,672.1 -365.5,23.8 -758.2,114 -1036,232.4 -1472.2,629.2 -3417.7,193 -4399.6,-1099.9 -217.9,-287 -359.7,-719.8 -528.8,-982.4 -66.6,-103.4 -162.6,-158.1 -288,-164.3 -497.6,-25.3 -1359.1,-54.6 -1551.6,-616.4 -419.6,-1227.1 -355.3,-2899.7 268.5,-4063.9 408.4,-761.7 927.9,-1308.5 1637.4,-1720.7 257,-149.2 458.7,-276.8 605.3,-383.1 959.4,-694.9 1881.2,-1436 2765.6,-2223.2 361.6,-321.6 610.6,-530 747,-625.2 951.8,-663.29 2066.3,-860.65 3177.9,-916.21 1648.2,-82.85 3389.9,-79.92 5197.9,-60.43 455.1,4.88 816.9,31.35 1085.2,79.44 751.5,134.99 1023.4,295.81 1089.7,1103.8 z m 1,2165.7 c 0,-75.4 0,-150.6 0,-225.6 0,75 0,150.2 0,225.6"
         style="fill:#fef3dd;fill-opacity:1;fill-rule:nonzero;stroke:none"
         transform="matrix(0.13333333,0,0,-0.13333333,0,3736.1867)" />
      <path
         id="path4"
         d="m 33664.2,11866.5 c -13.1,-396.7 36.1,-786.6 12.2,-1181.8 -66.3,-807.99 -338.2,-968.81 -1089.7,-1103.8 -268.3,-48.09 -630.1,-74.56 -1085.2,-79.44 -1808,-19.49 -3549.7,-22.42 -5197.9,60.43 -1111.6,55.56 -2226.1,252.92 -3177.9,916.21 -136.4,95.2 -385.4,303.6 -747,625.2 -884.4,787.2 -1806.2,1528.3 -2765.6,2223.2 -146.6,106.3 -348.3,233.9 -605.3,383.1 -709.5,412.2 -1229,959 -1637.4,1720.7 -623.8,1164.2 -688.1,2836.8 -268.5,4063.9 192.5,561.8 1054,591.1 1551.6,616.4 125.4,6.2 221.4,60.9 288,164.3 169.1,262.6 310.9,695.4 528.8,982.4 981.9,1292.9 2927.4,1729.1 4399.6,1099.9 277.8,-118.4 670.5,-208.6 1036,-232.4 722.9,-47.8 1383.3,-271.8 1981,-672.1 421.1,-282.1 719.3,-731 1164.3,-967.3 434.3,-231 862.9,-472.6 1285.5,-724.7 2409.4,-1436.6 4752.5,-4080.9 4301.7,-7116.9 -19.2,-129.3 -10.6,-388.4 25.8,-777.3 z m -7971.7,6664.2 c -65.6,-205.3 -88.7,-343.6 -69.2,-414.7 88.7,-320.7 649.6,-899.6 1029.2,-684.2 11.9,6.8 16.6,21.7 10.8,34.1 -109.5,236.5 -191.2,496.4 -245.2,779.7 -0.4,2.1 -0.7,4.3 -0.7,6.5 0,16.6 13.7,30.2 30.2,30.2 12.8,0 24.3,-8.1 28.5,-20.1 76,-194 190.6,-378 343.6,-552.2 48.4,-55.2 98.4,-56.6 150.1,-4.4 302.1,309 252.9,782.7 -10.2,1135 -92.3,182 -199.7,350.3 -322.2,504.9 -1.7,1.8 -2.7,4.1 -2.7,6.6 0,5.1 4.2,9.3 9.3,9.3 2.5,0 4.8,-1 6.6,-2.7 582.3,-489.3 967.8,-1257.3 714.4,-2014.2 -0.9,-2.6 -1.3,-5.3 -1.3,-8.1 0,-12.6 9.3,-23.5 21.8,-25.5 443.1,-68.2 863,-186.5 1259.7,-354.8 3.8,-1.6 7.9,-2.4 12,-2.4 16.9,0 30.7,13.9 30.7,30.7 0,3.5 -0.6,7 -1.7,10.2 -217.1,607.9 -84.3,1100.3 398.1,1477.1 2.7,2.2 6,3.3 9.4,3.3 8.3,0 15.1,-6.8 15.1,-15.1 0,-3.3 -1,-6.5 -3,-9.1 -314.5,-433.1 -348.8,-892.2 -102.9,-1377.2 162.8,-321.3 307.7,-650.4 434.7,-987.3 5.1,-13.7 13.9,-25.7 25.4,-34.6 l 22.4,-18.6 c -2.6,-5.8 -6.7,-10 -12.2,-12.6 -7,-3.1 -10.9,-10.9 -9.3,-18.6 32.7,-142.3 61,-261.6 154,-382 168.2,-217.4 335.8,-412.8 445.5,-687.1 121.3,-303.2 139.3,-740.8 434.2,-932.8 220.9,-143.6 471.7,-199.5 752.4,-167.6 206.1,-55.1 640.8,-102.9 795.3,-232 13.3,-10.7 11.6,-15.1 -5.3,-13.2 l -534.1,68.3 -460.6,-42.9 c -42.3,-4 -75,-40 -75,-82.5 0,-11.7 2.5,-23.3 7.3,-34 79.4,-174.5 202.2,-364 271.4,-524.4 343.4,-797.9 311.8,-1580.7 -95,-2348.4 -2.3,-4.4 -3.5,-9.3 -3.5,-14.3 0,-17.1 14.1,-31.2 31.2,-31.2 2.8,0 5.6,0.4 8.4,1.1 1061.4,307.5 1737.3,1148.2 1769,2263.2 -4.6,663.1 -238.2,1218.5 -700.8,1666.2 -173,167.6 -473.2,224.6 -603.8,402 -110.6,150.1 -162.3,371.4 -204.7,550.7 -183.2,774.4 -872.8,983.9 -1515.6,1205.7 -163.7,56.5 -212.5,168.6 -206.1,328.9 17,426.4 67.7,752 -139.4,1178.4 -213.9,439.6 -520,730 -943,962 -363.5,199.3 -661.8,338.2 -926.9,674.4 -440,557 -840.1,1102.4 -1529.7,1370.4 -306.1,158.4 -898.7,401.1 -1222.7,329.9 -135.8,-30.2 -273.9,-52.4 -414.3,-66.7 -15.5,-1.6 -31.2,1.6 -44.8,9.2 l -347.5,192.5 c -287.2,186.5 -608,284.8 -962.4,294.9 -1032.7,29.7 -2938.6,-360.7 -2903,-1764.2 1.9,-82.3 43.8,-182.7 122.3,-203.2 607.2,-156.9 915.2,-478.1 1495.6,-984.4 12.3,-10.6 30.9,-10.2 42.4,1 l 96.5,94 c 10,9.8 13.3,24.8 8.3,38 -144.3,374 -121.1,736.6 69.6,1087.8 7.5,13.9 11.1,13 10.8,-3 -14.2,-499 -13.2,-782.6 549.2,-867.4 389.4,-59 666.7,-214 1007.3,-393.3 14.3,-7.5 15.8,-5.3 4.4,6.3 -334.8,348.5 -673,668.7 -877.2,1117 -208.1,456.6 -411.3,1006.3 -827.5,1290.5 -4.2,3 -6.7,7.8 -6.7,13 0,8.8 7.3,16.1 16.1,16.1 1.8,0 3.5,-0.3 5.2,-0.9 739.3,-295.3 1141.4,-870.4 1632.6,-1449.3 486.3,-573.1 1098.1,-939.4 1835.3,-1098.9 54.9,-11.7 97.4,0.5 127.6,36.5 185.2,219.3 359.2,397.8 522,535.6 12.3,10.7 13.8,9.4 4.4,-3.9 -197.6,-268 -344.3,-560.4 -440.1,-877.2 z m -5489.8,-3642.3 c -130.9,75 -271.1,119.6 -420.5,133.5 -14.5,1.4 -27.7,-9.1 -30.3,-23.8 l -37.5,-244.2 c -13.9,-73.4 -6.5,-143.1 22.4,-209.1 -24.8,-280.2 226.6,-682.2 412.3,-876.2 258,-269.6 572.3,-386.3 943,-349.9 17.7,1.6 34.2,-9.7 39,-26.8 243.2,-874.3 1677.4,-1036.5 2398.6,-966.8 2.3,0.2 4.5,0.3 6.8,0.3 40.1,0.5 73.4,-32.4 73.9,-72.8 0,-2.2 -0.1,-4.3 -0.3,-6.5 -8.4,-108.5 19.7,-222.9 84.3,-343.1 l 14.2,-26.3 c 297.3,-815.8 1180.3,-746.1 1872.3,-588.2 0.7,0.2 1.4,0.3 2.1,0.4 34.2,6.5 67.6,-16 74,-49.8 0.2,-0.8 0.3,-1.5 0.4,-2.3 43.9,-289.8 134,-563.8 270.5,-822.1 8,-14.8 22.1,-25.4 38.5,-28.7 103.6,-21.8 277.1,-42.4 520.4,-61.9 874.3,-70.8 1659.7,-106.6 2356.3,-107.2 496.1,-0.5 861.6,76 1213.9,380.1 409.7,353.4 648.3,805.1 715.9,1354.8 20.2,463.6 -110.5,876.8 -391.8,1239.7 -304.1,391.8 -649.1,405.5 -1085.3,459.1 -15.4,1.9 -29.8,9.1 -40.4,20.5 -91.2,98.9 98.4,443.4 144.7,560.4 171.1,430.8 -105.7,963.9 -404.5,1290.9 -768.5,841.2 -1658.9,1371.4 -2790,727.1 -67.5,32.8 -111.4,79.6 -131.5,140.4 -250.5,759.7 -756.4,1037.5 -1456.6,1309.9 -271,105.8 -430.4,256.3 -662.8,442.5 -310.9,249.5 -820.2,503.4 -1230,458.1 -303.6,-33.1 -568.8,-193 -810,-371.4 -34.1,-25 -69.7,-29.4 -106.7,-13.1 -940.1,1306 -3039,1845 -3982.9,181.8 -694.5,-1223.7 118.4,-2119.9 1086.7,-2727.6 682.3,-428.4 1118.9,-656 1859.2,-632.6 0.6,0.1 1.3,0.1 1.9,0.1 9.7,0 17.7,-7.9 17.7,-17.6 0,-9 -6.8,-16.6 -15.7,-17.6 z m 10379.7,2499.5 c -21,-135.5 -51.7,-413.2 120.8,-467.3 706.2,-221.8 1105.8,-693 1462.5,-1318.3 12,-20.7 14.1,-19.9 6.3,2.5 -238.8,693.9 -688.9,1194.8 -1350.4,1502.4 -15.8,7.3 -28.9,19.6 -37.5,35.1 l -139.4,256.3 c -31.5,58.2 -52.3,54.6 -62.3,-10.7"
         style="fill:#230a01;fill-opacity:1;fill-rule:nonzero;stroke:none"
         transform="matrix(0.13333333,0,0,-0.13333333,0,3736.1867)" />
      <path
         id="path5"
         d="m 24159.8,21645.7 c -268.6,39 -521.7,8.1 -759.2,-92.6 -10.3,-4.4 -17,-14.7 -17,-25.9 0,-11.1 6.4,-21.1 16.5,-25.7 124.8,-55.1 259.3,-94.1 368.9,-159.9 350.4,-211 620.9,-486.3 1070.7,-362.1 -68.7,-541.9 163.7,-1064.3 704.2,-1262.6 2.8,-1.1 5.8,-1.7 8.9,-1.7 13.3,0 24.3,11 24.3,24.3 0,8.8 -4.7,16.9 -12.3,21.2 -439.1,256.8 -576.5,742.2 -599.4,1231 1008.8,59 1431.8,-700.3 2064.8,-1402.5 4.4,-5 10.7,-7.9 17.3,-7.9 7.5,0 14.5,3.7 18.8,9.8 l 108.2,151.6 c 7.6,10.8 7.8,25.3 0.5,36.5 l -54.6,80 c -9.2,13 -8,30.9 2.9,42.9 l 78.9,87.2 c 10.3,11.3 10.5,28.7 0.5,39.9 l -1013.6,1151.6 c 689.6,-268 1089.7,-813.4 1529.7,-1370.4 265.1,-336.2 563.4,-475.1 926.9,-674.4 423,-232 729.1,-522.4 943,-962 207.1,-426.4 156.4,-752 139.4,-1178.4 -6.4,-160.3 42.4,-272.4 206.1,-328.9 642.8,-221.8 1332.4,-431.3 1515.6,-1205.7 42.4,-179.3 94.1,-400.6 204.7,-550.7 130.6,-177.4 430.8,-234.4 603.8,-402 462.6,-447.7 696.2,-1003.1 700.8,-1666.2 -168.3,-411.9 -442.7,-719.1 -823.1,-921.5 -172.1,-91.2 -560,-124.3 -445.4,216.3 174.9,521 177.3,1073.6 -184.7,1518.6 l 534.1,-68.3 c 16.9,-1.9 18.6,2.5 5.3,13.2 -154.5,129.1 -589.2,176.9 -795.3,232 -227.1,155.3 -360.1,345.6 -399.1,571.1 -142.6,827.2 -597.8,1370.4 -1365.5,1629.6 l -22.4,18.6 c -11.5,8.9 -20.3,20.9 -25.4,34.6 -127,336.9 -271.9,666 -434.7,987.3 -245.9,485 -211.6,944.1 102.9,1377.2 2,2.6 3,5.8 3,9.1 0,8.3 -6.8,15.1 -15.1,15.1 -3.4,0 -6.7,-1.1 -9.4,-3.3 -482.4,-376.8 -615.2,-869.2 -398.1,-1477.1 1.1,-3.2 1.7,-6.7 1.7,-10.2 0,-16.8 -13.8,-30.7 -30.7,-30.7 -4.1,0 -8.2,0.8 -12,2.4 -396.7,168.3 -816.6,286.6 -1259.7,354.8 -12.5,2 -21.8,12.9 -21.8,25.5 0,2.8 0.4,5.5 1.3,8.1 253.4,756.9 -132.1,1524.9 -714.4,2014.2 -1.8,1.7 -4.1,2.7 -6.6,2.7 -5.1,0 -9.3,-4.2 -9.3,-9.3 0,-2.5 1,-4.8 2.7,-6.6 122.5,-154.6 229.9,-322.9 322.2,-504.9 -129.3,-168.2 -268.1,-318.2 -416.2,-449.8 -11.9,-10.9 -28.5,-15.3 -44.4,-11.7 l -68.2,16.1 c -16.5,3.9 -33.4,-4.9 -39.5,-20.4 l -19.9,-49.3 c -6.2,-15.9 -21.5,-26.5 -38.5,-26.8 -164.3,-1.9 -621.4,41.9 -640.4,232 95.8,316.8 242.5,609.2 440.1,877.2 9.4,13.3 7.9,14.6 -4.4,3.9 -162.8,-137.8 -336.8,-316.3 -522,-535.6 -30.2,-36 -72.7,-48.2 -127.6,-36.5 -737.2,159.5 -1349,525.8 -1835.3,1098.9 -491.2,578.9 -893.3,1154 -1632.6,1449.3 -1.7,0.6 -3.4,0.9 -5.2,0.9 -8.8,0 -16.1,-7.3 -16.1,-16.1 0,-5.2 2.5,-10 6.7,-13 416.2,-284.2 619.4,-833.9 827.5,-1290.5 204.2,-448.3 542.4,-768.5 877.2,-1117 11.4,-11.6 9.9,-13.8 -4.4,-6.3 -340.6,179.3 -617.9,334.3 -1007.3,393.3 -562.4,84.8 -563.4,368.4 -549.2,867.4 0.3,16 -3.3,16.9 -10.8,3 -190.7,-351.2 -213.9,-713.8 -69.6,-1087.8 5,-13.2 1.7,-28.2 -8.3,-38 l -96.5,-94 c -11.5,-11.2 -30.1,-11.6 -42.4,-1 -580.4,506.3 -888.4,827.5 -1495.6,984.4 -78.5,20.5 -120.4,120.9 -122.3,203.2 -35.6,1403.5 1870.3,1793.9 2903,1764.2 354.4,-10.1 675.2,-108.4 962.4,-294.9"
         style="fill:#d28d43;fill-opacity:1;fill-rule:nonzero;stroke:none"
         transform="matrix(0.13333333,0,0,-0.13333333,0,3736.1867)" />
      <path
         id="path6"
         d="m 24159.8,21645.7 347.5,-192.5 c 13.6,-7.6 29.3,-10.8 44.8,-9.2 140.4,14.3 278.5,36.5 414.3,66.7 324,71.2 916.6,-171.5 1222.7,-329.9 l 1013.6,-1151.6 c 10,-11.2 9.8,-28.6 -0.5,-39.9 l -78.9,-87.2 c -10.9,-12 -12.1,-29.9 -2.9,-42.9 l 54.6,-80 c 7.3,-11.2 7.1,-25.7 -0.5,-36.5 l -108.2,-151.6 c -4.3,-6.1 -11.3,-9.8 -18.8,-9.8 -6.6,0 -12.9,2.9 -17.3,7.9 -633,702.2 -1056,1461.5 -2064.8,1402.5 l -3.4,206.6 c 0,0.1 0,0.2 0,0.3 0,14.4 -11.9,26.3 -26.3,26.3 -11.8,0 -22.2,-7.9 -25.4,-19.3 l -70.6,-226.1 c -449.8,-124.2 -720.3,151.1 -1070.7,362.1 -109.6,65.8 -244.1,104.8 -368.9,159.9 -10.1,4.6 -16.5,14.6 -16.5,25.7 0,11.2 6.7,21.5 17,25.9 237.5,100.7 490.6,131.6 759.2,92.6"
         style="fill:#fbd3a3;fill-opacity:1;fill-rule:nonzero;stroke:none"
         transform="matrix(0.13333333,0,0,-0.13333333,0,3736.1867)" />
      <path
         id="path7"
         d="m 24965.4,20991.7 c 22.9,-488.8 160.3,-974.2 599.4,-1231 7.6,-4.3 12.3,-12.4 12.3,-21.2 0,-13.3 -11,-24.3 -24.3,-24.3 -3.1,0 -6.1,0.6 -8.9,1.7 -540.5,198.3 -772.9,720.7 -704.2,1262.6 l 70.6,226.1 c 3.2,11.4 13.6,19.3 25.4,19.3 14.4,0 26.3,-11.9 26.3,-26.3 0,-0.1 0,-0.2 0,-0.3 l 3.4,-206.6"
         style="fill:#230a01;fill-opacity:1;fill-rule:nonzero;stroke:none"
         transform="matrix(0.13333333,0,0,-0.13333333,0,3736.1867)" />
      <path
         id="path8"
         d="m 21808,18215.9 c -282.2,-85.3 -700.8,374.7 -873.8,559.4 -411.3,438.6 -1132.5,532.7 -1701.3,416.7 -451.7,-92.6 -842.1,-519.5 -997,-924.5 -177.4,-464.9 -34.6,-997.5 220.7,-1410.3 7.9,-12.9 24.8,-17.6 38.5,-10.7 73.8,37.7 116.3,100.4 127.7,188.1 1.6,12.5 8,24.1 18,32.2 31.2,24.3 40.8,46.3 28.8,65.8 -0.2,0.3 -0.4,0.6 -0.5,0.9 -4.8,9.3 -1.3,20.7 7.8,25.4 0.3,0.1 0.6,0.3 1,0.5 58.1,26 82.8,72.9 74,140.8 465.5,-802.6 1038.6,-1182.8 1998.1,-1013.6 14.9,2.7 30.3,-2.5 40.9,-13.7 1088.7,-1155.9 2698.4,-1323.1 4299.7,-1982.9 508.8,-210.1 2538.5,-1099 2452.8,-1772 -1.9,-15.2 -11,-28.6 -24.4,-35.5 -78.6,-42.6 -150.1,-52.5 -214.4,-29.8 -304.1,106.7 -694.5,319.7 -1021,432.3 -808.6,279.4 -1671,439.2 -2587.2,479.5 -399.3,17.2 -760.4,-28.9 -1083.3,-138.4 -15.3,-5.2 -15,-7.1 0.9,-5.8 503.6,45.1 978.1,-49.4 1423.5,-283.6 -915.2,-378.2 -2033.6,-170.6 -2858.6,328.4 -12.4,7.2 -18.8,21.9 -15.6,36.1 34.4,154.3 99.1,292.7 193.9,415.2 341.6,379.1 672.5,455.6 1151.1,266.5 14.7,-5.6 31.2,-5.4 46.3,0.5 166.7,66.3 39,292.9 -48.7,369.4 -145.8,127.2 -488.8,215.4 -676,297.8 -405.9,178.8 -884,70.2 -1241.7,-157.9 -2.4,-1.4 -4.3,-3.6 -5.3,-6.2 -2.6,-6.4 0.8,-13.9 7.5,-16.6 2.6,-1 5.4,-1.2 8,-0.6 254.4,64.6 507.4,89.8 758.8,75.5 -133.8,-115.6 -274.2,-222.7 -421,-321.1 -445.9,-298.8 -954.7,-156.4 -1199.4,321.1 -28.9,66 -36.3,135.7 -22.4,209.1 l 488.3,134.5 572.2,114 c 8.9,1 15.7,8.6 15.7,17.6 0,9.7 -8,17.6 -17.7,17.6 -0.6,0 -1.3,0 -1.9,-0.1 -740.3,-23.4 -1176.9,204.2 -1859.2,632.6 -968.3,607.7 -1781.2,1503.9 -1086.7,2727.6 943.9,1663.2 3042.8,1124.2 3982.9,-181.8"
         style="fill:#d28d43;fill-opacity:1;fill-rule:nonzero;stroke:none"
         transform="matrix(0.13333333,0,0,-0.13333333,0,3736.1867)" />
      <path
         id="path9"
         d="m 21808,18215.9 c 37,-16.3 72.6,-11.9 106.7,13.1 241.2,178.4 506.4,338.3 810,371.4 409.8,45.3 919.1,-208.6 1230,-458.1 232.4,-186.2 391.8,-336.7 662.8,-442.5 700.2,-272.4 1206.1,-550.2 1456.6,-1309.9 20.1,-60.8 64,-107.6 131.5,-140.4 190.8,-15.9 381.5,-14.9 572.2,2.9 279.1,26.4 450.8,37.1 515.1,32.2 637.4,-45.3 1051.6,-415.2 1470.3,-893.8 3.7,-4.3 5.8,-9.9 5.8,-15.6 0,-8 -4,-15.5 -10.7,-19.9 -95.5,-61.8 -130.6,-149.2 -105.3,-262.2 4,-16.8 -3.3,-34.4 -18,-43.4 l -82.4,-51.2 c -17.2,-10.6 -39.9,-7.1 -53.1,8.3 -301.2,346.3 -680.5,542.3 -1137.9,587.7 l 58,289.5 c 4.9,24.1 0.6,25.7 -12.7,4.9 l -189.5,-296.3 c -418.7,24.4 -1121.4,-502.9 -1454.2,-26.3 -237.9,339.6 -517.6,642.8 -877.7,868.4 -238.8,149.6 -520,281.2 -732.5,417.2 -528.2,337.7 -943.4,697.8 -1612.1,777.2 4.9,198.9 28.1,396.4 69.7,592.6 0.2,0.9 0.3,1.8 0.4,2.7 0.9,11.5 -8,21.7 -19.7,22.6 -0.9,0.1 -1.7,0.1 -2.6,0.1 -47.8,-2.5 -175,-522.9 -197.9,-630.1 -258.6,26 -505.7,21.4 -741.2,-13.7 -385,-57.5 -973.7,-166.6 -1197.4,247.6 -7.9,14.6 -11.5,31.4 -10.2,48.2 l 7.8,121.4 c 1,13.7 -4.9,27 -15.6,35.5 -381.6,310.5 -1028.7,421.1 -1400.1,92.6 -173.8,-154.3 -276.6,-381.7 -308.5,-682.2 -30.8,-53 -22.1,-108.4 26.3,-166.2 8.8,-67.9 -15.9,-114.8 -74,-140.8 -0.4,-0.2 -0.7,-0.4 -1,-0.5 -9.1,-4.7 -12.6,-16.1 -7.8,-25.4 0.1,-0.3 0.3,-0.6 0.5,-0.9 12,-19.5 2.4,-41.5 -28.8,-65.8 -10,-8.1 -16.4,-19.7 -18,-32.2 -11.4,-87.7 -53.9,-150.4 -127.7,-188.1 -13.7,-6.9 -30.6,-2.2 -38.5,10.7 -255.3,412.8 -398.1,945.4 -220.7,1410.3 154.9,405 545.3,831.9 997,924.5 568.8,116 1290,21.9 1701.3,-416.7 173,-184.7 591.6,-644.7 873.8,-559.4"
         style="fill:#fbd3a3;fill-opacity:1;fill-rule:nonzero;stroke:none"
         transform="matrix(0.13333333,0,0,-0.13333333,0,3736.1867)" />
      <path
         id="path10"
         d="m 26959.6,18840.6 c 263.1,-352.3 312.3,-826 10.2,-1135 -51.7,-52.2 -101.7,-50.8 -150.1,4.4 -153,174.2 -267.6,358.2 -343.6,552.2 -4.2,12 -15.7,20.1 -28.5,20.1 -16.5,0 -30.2,-13.6 -30.2,-30.2 0,-2.2 0.3,-4.4 0.7,-6.5 54,-283.3 135.7,-543.2 245.2,-779.7 5.8,-12.4 1.1,-27.3 -10.8,-34.1 -379.6,-215.4 -940.5,363.5 -1029.2,684.2 -19.5,71.1 3.6,209.4 69.2,414.7 19,-190.1 476.1,-233.9 640.4,-232 17,0.3 32.3,10.9 38.5,26.8 l 19.9,49.3 c 6.1,15.5 23,24.3 39.5,20.4 l 68.2,-16.1 c 15.9,-3.6 32.5,0.8 44.4,11.7 148.1,131.6 286.9,281.6 416.2,449.8"
         style="fill:#713d11;fill-opacity:1;fill-rule:nonzero;stroke:none"
         transform="matrix(0.13333333,0,0,-0.13333333,0,3736.1867)" />
      <path
         id="path11"
         d="m 22390.8,17617 c -157.4,-974.7 253.5,-1457.2 1148.7,-1735.4 15.6,-4.9 16.9,-2.5 3.9,7.3 -618,476.1 -1008.8,907.4 -1002.5,1740.2 668.7,-79.4 1083.9,-439.5 1612.1,-777.2 212.5,-136 493.7,-267.6 732.5,-417.2 360.1,-225.6 639.8,-528.8 877.7,-868.4 332.8,-476.6 1035.5,50.7 1454.2,26.3 -84.2,-167.7 -174.7,-331.5 -271.5,-491.7 -205.2,-338.7 -239.8,-642.8 -264.1,-1049.2 -0.4,-8.6 -7.5,-15.4 -16.1,-15.4 -2.5,0 -5.1,0.6 -7.3,1.7 -250,127.2 -975.2,429.4 -1094.6,657.4 -219.9,421.1 -512.3,780.4 -877.1,1078 -213.5,174.5 -352.4,390.3 -532.2,591.6 -14.3,16.3 -16.6,14.8 -6.8,-4.4 213.4,-416.5 337.8,-858.7 373.3,-1326.5 0,-0.3 0,-0.5 0,-0.8 0,-8.8 -7.3,-16.1 -16.1,-16.1 -2.2,0 -4.3,0.5 -6.4,1.3 -650.7,284.3 -1311.4,543.1 -1981.9,776.3 -993.2,346 -1540.5,819.7 -2125.8,1685.7 -114.5,169.6 -379.6,534.1 -588.7,579.9 -2.7,0.6 -5.4,0.9 -8.2,0.9 -21.6,0 -39.4,-17.8 -39.4,-39.5 0,-6.2 1.4,-12.4 4.3,-17.9 251.8,-487.3 516.1,-959.4 792.9,-1416.2 2,-3.2 3,-6.9 3,-10.7 0,-10.9 -8.7,-20 -19.6,-20.5 -719.8,-35.1 -1409.4,315.8 -1809.5,909.9 31.9,300.5 134.7,527.9 308.5,682.2 371.4,328.5 1018.5,217.9 1400.1,-92.6 10.7,-8.5 16.6,-21.8 15.6,-35.5 l -7.8,-121.4 c -1.3,-16.8 2.3,-33.6 10.2,-48.2 223.7,-414.2 812.4,-305.1 1197.4,-247.6 235.5,35.1 482.6,39.7 741.2,13.7"
         style="fill:#d28d43;fill-opacity:1;fill-rule:nonzero;stroke:none"
         transform="matrix(0.13333333,0,0,-0.13333333,0,3736.1867)" />
      <path
         id="path12"
         d="m 22540.9,17629.1 c -6.3,-832.8 384.5,-1264.1 1002.5,-1740.2 13,-9.8 11.7,-12.2 -3.9,-7.3 -895.2,278.2 -1306.1,760.7 -1148.7,1735.4 22.9,107.2 150.1,627.6 197.9,630.1 0.9,0 1.7,0 2.6,-0.1 11.7,-0.9 20.6,-11.1 19.7,-22.6 -0.1,-0.9 -0.2,-1.8 -0.4,-2.7 -41.6,-196.2 -64.8,-393.7 -69.7,-592.6"
         style="fill:#230a01;fill-opacity:1;fill-rule:nonzero;stroke:none"
         transform="matrix(0.13333333,0,0,-0.13333333,0,3736.1867)" />
      <path
         id="path13"
         d="m 27217.4,15592.6 189.5,296.3 c 13.3,20.8 17.6,19.2 12.7,-4.9 l -58,-289.5 c -250,-556.5 -362.1,-1011.6 -39,-1572.6 8.1,-13.9 15.3,-13.3 21.5,2 145.5,368.4 411.1,591.8 796.7,670.1 0.9,0.1 1.8,0.2 2.6,0.2 8.3,0 15.1,-6.8 15.1,-15.1 0,-5 -2.4,-9.6 -6.4,-12.4 -320.2,-201.3 -720.8,-715.4 -541.5,-1115 79.5,-177.9 556.1,-873.8 825.1,-796.3 204.7,58.8 410.6,113.7 617.9,164.7 15.9,3.9 16.6,2.4 2,-4.4 -202.8,-96.2 -363.3,-195.8 -481.5,-298.7 -300.2,-261.7 -195,-662.3 -96.5,-977.1 0.6,-2.1 0.9,-4.3 0.9,-6.5 0,-12.8 -10.6,-23.4 -23.4,-23.4 -3.7,0 -7.4,0.9 -10.7,2.6 -648.6,343.5 -1191,90.6 -1531.6,-507.3 -8.5,-14.7 -16.4,-14.3 -23.9,0.9 -16.6,34.8 -20.3,73.1 -11.2,115.1 73.6,331.3 213.9,667.1 -157.4,894.2 -349.3,213.4 -720.5,358.2 -1113.6,434.2 -698.8,135 -1286,134.5 -1776.3,-392.8 -19.5,-4.8 -34.6,-4.2 -45.3,2 -13,7.5 -17.8,24.1 -10.7,37 117.4,214.4 341.1,362.6 518.5,532.2 10.3,9.5 12.2,25.3 4.4,37 -63.1,97.8 -149.6,155 -259.8,171.6 -445.4,234.2 -919.9,328.7 -1423.5,283.6 -15.9,-1.3 -16.2,0.6 -0.9,5.8 322.9,109.5 684,155.6 1083.3,138.4 916.2,-40.3 1778.6,-200.1 2587.2,-479.5 326.5,-112.6 716.9,-325.6 1021,-432.3 64.3,-22.7 135.8,-12.8 214.4,29.8 13.4,6.9 22.5,20.3 24.4,35.5 85.7,673 -1944,1561.9 -2452.8,1772 -1601.3,659.8 -3211,827 -4299.7,1982.9 -10.6,11.2 -26,16.4 -40.9,13.7 -959.5,-169.2 -1532.6,211 -1998.1,1013.6 -48.4,57.8 -57.1,113.2 -26.3,166.2 400.1,-594.1 1089.7,-945 1809.5,-909.9 10.9,0.5 19.6,9.6 19.6,20.5 0,3.8 -1,7.5 -3,10.7 -276.8,456.8 -541.1,928.9 -792.9,1416.2 -2.9,5.5 -4.3,11.7 -4.3,17.9 0,21.7 17.8,39.5 39.4,39.5 2.8,0 5.5,-0.3 8.2,-0.9 209.1,-45.8 474.2,-410.3 588.7,-579.9 585.3,-866 1132.6,-1339.7 2125.8,-1685.7 670.5,-233.2 1331.2,-492 1981.9,-776.3 2.1,-0.8 4.2,-1.3 6.4,-1.3 8.8,0 16.1,7.3 16.1,16.1 0,0.3 0,0.5 0,0.8 -35.5,467.8 -159.9,910 -373.3,1326.5 -9.8,19.2 -7.5,20.7 6.8,4.4 179.8,-201.3 318.7,-417.1 532.2,-591.6 364.8,-297.6 657.2,-656.9 877.1,-1078 119.4,-228 844.6,-530.2 1094.6,-657.4 2.2,-1.1 4.8,-1.7 7.3,-1.7 8.6,0 15.7,6.8 16.1,15.4 24.3,406.4 58.9,710.5 264.1,1049.2 96.8,160.2 187.3,324 271.5,491.7"
         style="fill:#230a01;fill-opacity:1;fill-rule:nonzero;stroke:none"
         transform="matrix(0.13333333,0,0,-0.13333333,0,3736.1867)" />
      <path
         id="path14"
         d="m 30582.4,17387.9 c 10,65.3 30.8,68.9 62.3,10.7 l 139.4,-256.3 c 8.6,-15.5 21.7,-27.8 37.5,-35.1 661.5,-307.6 1111.6,-808.5 1350.4,-1502.4 7.8,-22.4 5.7,-23.2 -6.3,-2.5 -356.7,625.3 -756.3,1096.5 -1462.5,1318.3 -172.5,54.1 -141.8,331.8 -120.8,467.3"
         style="fill:#713d11;fill-opacity:1;fill-rule:nonzero;stroke:none"
         transform="matrix(0.13333333,0,0,-0.13333333,0,3736.1867)" />
      <path
         id="path15"
         d="m 20855.8,7612.57 c -2208.6,1033.63 -4242.7,2840.63 -5157.5,5145.73 -95.5,240.4 -203.7,546.6 -324.5,918.6 -297.3,912.8 -633.5,2015.1 -428.9,2979 3.3,16.3 5.9,16.1 7.8,-0.4 39.3,-335.3 73.6,-551.2 102.9,-647.7 489.2,-1601.4 1694.4,-2872.8 2991.7,-3869.4 1463.3,-1123.5 2981,-2168.29 4553.1,-3134.5 1148.6,-706.14 2279.7,-1282.65 3644.2,-1521.44 1084.2,-190.39 2173.4,-224.66 3267.6,-102.83 1358.2,151.07 2605.3,604.78 3878.6,1007.31 1091.2,345.52 2325.6,358.67 3445.5,153.02 8.8,-1.56 15.3,-9.29 15.3,-18.23 0,-9.13 -6.8,-16.97 -15.8,-18.32 -933.7,-133.53 -1964.9,-275.83 -2808,-534.6 -752.5,-230.99 -1271,-914.23 -1906,-1385.48 C 30738.3,5557.02 29011.2,5292.88 27347.5,5573.1 25103.8,5951.27 22992.7,6613.06 20855.8,7612.57 Z M 16479,12270.5 c 25.4,-1009.3 713,-1479.6 1458.1,-2082.4 145.3,-117.6 278,-200.77 398.2,-249.5 15.3,-6.5 19.1,-2.28 11.7,12.67 -65.3,131.23 -133.7,233.63 -205.2,307.03 -607.5,623.4 -1137.6,1301.5 -1590.1,2034.1 -3.6,6 -8.7,10.9 -14.9,14.2 -18.8,10.1 -42.7,2.8 -53,-16.3 -3.3,-6.1 -4.9,-12.9 -4.8,-19.8 z m 1388.4,-934.7 c 706.7,-1112.1 1749.1,-1940.58 2895.8,-2541.94 2.9,-1.43 6.1,-2.18 9.4,-2.18 11.7,0 21.4,9.68 21.4,21.44 0,5.31 -1.9,10.43 -5.5,14.37 -94.1,96.49 -197.4,207.6 -307.5,288.49 -937.6,689.09 -1799.2,1436.62 -2584.8,2242.72 -3.5,3.4 -8.1,5.3 -13,5.3 -10.1,0 -18.5,-8.4 -18.5,-18.6 0,-3.4 1,-6.7 2.7,-9.6 z m 1635,-2384.05 c 836.8,-741.71 1742.7,-1214.42 2755.9,-1581.38 63.3,-22.74 129.3,-32.16 197.8,-28.26 16.9,0.97 19.2,7.14 6.9,18.51 -64.7,60.76 -116,101.69 -154,122.81 -1057.5,581.87 -2117,1161.31 -3119.9,1836.75 -13.7,9.42 -16.3,6.98 -7.8,-7.31 67.6,-111.12 174.6,-231.49 321.1,-361.12 z M 21491.2,8423 c 1369.4,-1103.8 3213.5,-1875.73 4945.9,-1937.62 459.1,-16.57 994.2,-10.23 1440.1,111.6 15.9,4.22 15.6,7.15 -1,8.77 -459,39.47 -971.7,42.89 -1381.1,93.57 -1797.7,220.76 -3421.5,849.41 -4990.2,1743.66 -1.8,0.91 -3.7,1.38 -5.7,1.38 -6.6,0 -12.1,-5.5 -12.1,-12.18 0,-3.52 1.5,-6.87 4.1,-9.18 z M 27479,6069.2 c 985.9,-321.64 2219.8,55.56 3032.7,626.71 110.1,77.32 208.3,170.24 294.3,278.75 10.4,12.99 7.8,16.73 -7.7,11.21 -214.8,-75.7 -429.2,-152.21 -643.3,-229.53 -723.2,-260.73 -1466.4,-423.49 -2229.6,-516.09 -65.3,-7.79 -470.7,-67.74 -476.1,-125.24 -2,-20.4 10.5,-39.54 29.7,-45.81"
         style="fill:#90531b;fill-opacity:1;fill-rule:nonzero;stroke:none"
         transform="matrix(0.13333333,0,0,-0.13333333,0,3736.1867)" />
      <path
         id="path16"
         d="m 30772.9,11951.8 c -614,-1302.7 -2147.2,-1717.4 -3470.3,-1499.6 -723.2,119.4 -1262.6,840.2 -936.6,1562.4 2.9,6.5 4.5,13.6 4.5,20.7 0,27.6 -22.7,50.2 -50.2,50.2 -8.4,0 -16.6,-2.1 -24,-6.1 -346.5,-186.1 -702.2,-413.7 -1088.2,-455.6 -521.1,-57.2 -1021,27.1 -1499.5,252.9 l -14.2,26.3 136,253.9 c 490.3,527.3 1077.5,527.8 1776.3,392.8 393.1,-76 764.3,-220.8 1113.6,-434.2 371.3,-227.1 231,-562.9 157.4,-894.2 -9.1,-42 -5.4,-80.3 11.2,-115.1 7.5,-15.2 15.4,-15.6 23.9,-0.9 340.6,597.9 883,850.8 1531.6,507.3 3.3,-1.7 7,-2.6 10.7,-2.6 12.8,0 23.4,10.6 23.4,23.4 0,2.2 -0.3,4.4 -0.9,6.5 -98.5,314.8 -203.7,715.4 96.5,977.1 118.2,102.9 278.7,202.5 481.5,298.7 14.6,6.8 13.9,8.3 -2,4.4 -207.3,-51 -413.2,-105.9 -617.9,-164.7 -269,-77.5 -745.6,618.4 -825.1,796.3 -179.3,399.6 221.3,913.7 541.5,1115 4,2.8 6.4,7.4 6.4,12.4 0,8.3 -6.8,15.1 -15.1,15.1 -0.8,0 -1.7,-0.1 -2.6,-0.2 -385.6,-78.3 -651.2,-301.7 -796.7,-670.1 -6.2,-15.3 -13.4,-15.9 -21.5,-2 -323.1,561 -211,1016.1 39,1572.6 457.4,-45.4 836.7,-241.4 1137.9,-587.7 13.2,-15.4 35.9,-18.9 53.1,-8.3 l 82.4,51.2 c 14.7,9 22,26.6 18,43.4 -25.3,113 9.8,200.4 105.3,262.2 6.7,4.4 10.7,11.9 10.7,19.9 0,5.7 -2.1,11.3 -5.8,15.6 -418.7,478.6 -832.9,848.5 -1470.3,893.8 -64.3,4.9 -236,-5.8 -515.1,-32.2 -190.7,-17.8 -381.4,-18.8 -572.2,-2.9 1131.1,644.3 2021.5,114.1 2790,-727.1 298.8,-327 575.6,-860.1 404.5,-1290.9 -46.3,-117 -235.9,-461.5 -144.7,-560.4 10.6,-11.4 25,-18.6 40.4,-20.5 436.2,-53.6 781.2,-67.3 1085.3,-459.1 281.3,-362.9 412,-776.1 391.8,-1239.7"
         style="fill:#d28d43;fill-opacity:1;fill-rule:nonzero;stroke:none"
         transform="matrix(0.13333333,0,0,-0.13333333,0,3736.1867)" />
      <path
         id="path17"
         d="m 29485.4,16033.1 c 767.7,-259.2 1222.9,-802.4 1365.5,-1629.6 39,-225.5 172,-415.8 399.1,-571.1 -280.7,-31.9 -531.5,24 -752.4,167.6 -294.9,192 -312.9,629.6 -434.2,932.8 -109.7,274.3 -277.3,469.7 -445.5,687.1 -93,120.4 -121.3,239.7 -154,382 -1.6,7.7 2.3,15.5 9.3,18.6 5.5,2.6 9.6,6.8 12.2,12.6"
         style="fill:#713d11;fill-opacity:1;fill-rule:nonzero;stroke:none"
         transform="matrix(0.13333333,0,0,-0.13333333,0,3736.1867)" />
      <path
         id="path18"
         d="m 20202.7,14888.4 -488.3,-134.5 37.5,244.2 c 2.6,14.7 15.8,25.2 30.3,23.8 149.4,-13.9 289.6,-58.5 420.5,-133.5"
         style="fill:#713d11;fill-opacity:1;fill-rule:nonzero;stroke:none"
         transform="matrix(0.13333333,0,0,-0.13333333,0,3736.1867)" />
      <path
         id="path19"
         d="m 21357.2,13716.4 c -14,-11.1 -28.4,-17.9 -43.4,-20.5 -1.2,-0.2 -2.4,-0.3 -3.6,-0.3 -10.7,0 -19.4,8.8 -19.4,19.5 0,3.7 1,7.4 3.1,10.5 137.1,210.9 297.9,386 482.4,525.4 18.2,13.8 28.9,35.4 28.9,58.2 0,22.9 -10.7,44.4 -28.9,58.2 -127,97.2 -266.7,156.3 -419.1,177.4 -251.4,14.3 -504.4,-10.9 -758.8,-75.5 -2.6,-0.6 -5.4,-0.4 -8,0.6 -6.7,2.7 -10.1,10.2 -7.5,16.6 1,2.6 2.9,4.8 5.3,6.2 357.7,228.1 835.8,336.7 1241.7,157.9 187.2,-82.4 530.2,-170.6 676,-297.8 87.7,-76.5 215.4,-303.1 48.7,-369.4 -15.1,-5.9 -31.6,-6.1 -46.3,-0.5 -478.6,189.1 -809.5,112.6 -1151.1,-266.5"
         style="fill:#230a01;fill-opacity:1;fill-rule:nonzero;stroke:none"
         transform="matrix(0.13333333,0,0,-0.13333333,0,3736.1867)" />
      <path
         id="path20"
         d="m 19736.8,14544.8 c 244.7,-477.5 753.5,-619.9 1199.4,-321.1 146.8,98.4 287.2,205.5 421,321.1 152.4,-21.1 292.1,-80.2 419.1,-177.4 18.2,-13.8 28.9,-35.3 28.9,-58.2 0,-22.8 -10.7,-44.4 -28.9,-58.2 -184.5,-139.4 -345.3,-314.5 -482.4,-525.4 -2.1,-3.1 -3.1,-6.8 -3.1,-10.5 0,-10.7 8.7,-19.5 19.4,-19.5 1.2,0 2.4,0.1 3.6,0.3 15,2.6 29.4,9.4 43.4,20.5 -94.8,-122.5 -159.5,-260.9 -193.9,-415.2 -3.2,-14.2 3.2,-28.9 15.6,-36.1 825,-499 1943.4,-706.6 2858.6,-328.4 110.2,-16.6 196.7,-73.8 259.8,-171.6 7.8,-11.7 5.9,-27.5 -4.4,-37 -177.4,-169.6 -401.1,-317.8 -518.5,-532.2 -7.1,-12.9 -2.3,-29.5 10.7,-37 10.7,-6.2 25.8,-6.8 45.3,-2 l -136,-253.9 c -64.6,120.2 -92.7,234.6 -84.3,343.1 0.2,2.2 0.3,4.3 0.3,6.5 -0.5,40.4 -33.8,73.3 -73.9,72.8 -2.3,0 -4.5,-0.1 -6.8,-0.3 -721.2,-69.7 -2155.4,92.5 -2398.6,966.8 -4.8,17.1 -21.3,28.4 -39,26.8 -370.7,-36.4 -685,80.3 -943,349.9 -185.7,194 -437.1,596 -412.3,876.2"
         style="fill:#713d11;fill-opacity:1;fill-rule:nonzero;stroke:none"
         transform="matrix(0.13333333,0,0,-0.13333333,0,3736.1867)" />
      <path
         id="path21"
         d="m 31505.9,13655.5 c 362,-445 359.6,-997.6 184.7,-1518.6 -114.6,-340.6 273.3,-307.5 445.4,-216.3 380.4,202.4 654.8,509.6 823.1,921.5 -31.7,-1115 -707.6,-1955.7 -1769,-2263.2 -2.8,-0.7 -5.6,-1.1 -8.4,-1.1 -17.1,0 -31.2,14.1 -31.2,31.2 0,5 1.2,9.9 3.5,14.3 406.8,767.7 438.4,1550.5 95,2348.4 -69.2,160.4 -192,349.9 -271.4,524.4 -4.8,10.7 -7.3,22.3 -7.3,34 0,42.5 32.7,78.5 75,82.5 l 460.6,42.9"
         style="fill:#713d11;fill-opacity:1;fill-rule:nonzero;stroke:none"
         transform="matrix(0.13333333,0,0,-0.13333333,0,3736.1867)" />
      <path
         id="path22"
         d="m 33677.4,12850.4 c 0,-75.4 0,-150.6 0,-225.6 0,75 0,150.2 0,225.6"
         style="fill:#ffffff;fill-opacity:1;fill-rule:nonzero;stroke:none"
         transform="matrix(0.13333333,0,0,-0.13333333,0,3736.1867)" />
      <path
         id="path23"
         d="m 17937.1,10188.1 c -745.1,602.8 -1432.7,1073.1 -1458.1,2082.4 -0.1,6.9 1.5,13.7 4.8,19.8 10.3,19.1 34.2,26.4 53,16.3 6.2,-3.3 11.3,-8.2 14.9,-14.2 452.5,-732.6 982.6,-1410.7 1590.1,-2034.1 71.5,-73.4 139.9,-175.8 205.2,-307.03 7.4,-14.95 3.6,-19.17 -11.7,-12.67 -120.2,48.73 -252.9,131.9 -398.2,249.5"
         style="fill:#230a01;fill-opacity:1;fill-rule:nonzero;stroke:none"
         transform="matrix(0.13333333,0,0,-0.13333333,0,3736.1867)" />
      <path
         id="path24"
         d="m 30772.9,11951.8 c -67.6,-549.7 -306.2,-1001.4 -715.9,-1354.8 -352.3,-304.1 -717.8,-380.6 -1213.9,-380.1 -696.6,0.6 -1482,36.4 -2356.3,107.2 -243.3,19.5 -416.8,40.1 -520.4,61.9 -16.4,3.3 -30.5,13.9 -38.5,28.7 -136.5,258.3 -226.6,532.3 -270.5,822.1 -0.1,0.8 -0.2,1.5 -0.4,2.3 -6.4,33.8 -39.8,56.3 -74,49.8 -0.7,-0.1 -1.4,-0.2 -2.1,-0.4 -692,-157.9 -1575,-227.6 -1872.3,588.2 478.5,-225.8 978.4,-310.1 1499.5,-252.9 386,41.9 741.7,269.5 1088.2,455.6 7.4,4 15.6,6.1 24,6.1 27.5,0 50.2,-22.6 50.2,-50.2 0,-7.1 -1.6,-14.2 -4.5,-20.7 -326,-722.2 213.4,-1443 936.6,-1562.4 1323.1,-217.8 2856.3,196.9 3470.3,1499.6"
         style="fill:#713d11;fill-opacity:1;fill-rule:nonzero;stroke:none"
         transform="matrix(0.13333333,0,0,-0.13333333,0,3736.1867)" />
      <path
         id="path25"
         d="m 33664.2,11866.5 c 66,-393.5 70,-787.4 12.2,-1181.8 23.9,395.2 -25.3,785.1 -12.2,1181.8"
         style="fill:#713d11;fill-opacity:1;fill-rule:nonzero;stroke:none"
         transform="matrix(0.13333333,0,0,-0.13333333,0,3736.1867)" />
      <path
         id="path26"
         d="m 20763.2,8793.86 c -1146.7,601.36 -2189.1,1429.84 -2895.8,2541.94 -1.7,2.9 -2.7,6.2 -2.7,9.6 0,10.2 8.4,18.6 18.5,18.6 4.9,0 9.5,-1.9 13,-5.3 785.6,-806.1 1647.2,-1553.63 2584.8,-2242.72 110.1,-80.89 213.4,-192 307.5,-288.49 3.6,-3.94 5.5,-9.06 5.5,-14.37 0,-11.76 -9.7,-21.44 -21.4,-21.44 -3.3,0 -6.5,0.75 -9.4,2.18"
         style="fill:#230a01;fill-opacity:1;fill-rule:nonzero;stroke:none"
         transform="matrix(0.13333333,0,0,-0.13333333,0,3736.1867)" />
      <path
         id="path27"
         d="m 19502.4,8951.75 c -146.5,129.63 -253.5,250 -321.1,361.12 -8.5,14.29 -5.9,16.73 7.8,7.31 1002.9,-675.44 2062.4,-1254.88 3119.9,-1836.75 38,-21.12 89.3,-62.05 154,-122.81 12.3,-11.37 10,-17.54 -6.9,-18.51 -68.5,-3.9 -134.5,5.52 -197.8,28.26 -1013.2,366.96 -1919.1,839.67 -2755.9,1581.38"
         style="fill:#230a01;fill-opacity:1;fill-rule:nonzero;stroke:none"
         transform="matrix(0.13333333,0,0,-0.13333333,0,3736.1867)" />
      <path
         id="path28"
         d="m 21491.2,8423 c -2.6,2.31 -4.1,5.66 -4.1,9.18 0,6.68 5.5,12.18 12.1,12.18 2,0 3.9,-0.47 5.7,-1.38 1568.7,-894.25 3192.5,-1522.9 4990.2,-1743.66 409.4,-50.68 922.1,-54.1 1381.1,-93.57 16.6,-1.62 16.9,-4.55 1,-8.77 -445.9,-121.83 -981,-128.17 -1440.1,-111.6 -1732.4,61.89 -3576.5,833.82 -4945.9,1937.62"
         style="fill:#230a01;fill-opacity:1;fill-rule:nonzero;stroke:none"
         transform="matrix(0.13333333,0,0,-0.13333333,0,3736.1867)" />
      <path
         id="path29"
         d="m 27479,6069.2 c -19.2,6.27 -31.7,25.41 -29.7,45.81 5.4,57.5 410.8,117.45 476.1,125.24 763.2,92.6 1506.4,255.36 2229.6,516.09 214.1,77.32 428.5,153.83 643.3,229.53 15.5,5.52 18.1,1.78 7.7,-11.21 -86,-108.51 -184.2,-201.43 -294.3,-278.75 -812.9,-571.15 -2046.8,-948.35 -3032.7,-626.71"
         style="fill:#230a01;fill-opacity:1;fill-rule:nonzero;stroke:none"
         transform="matrix(0.13333333,0,0,-0.13333333,0,3736.1867)" />
    </g>
  </g>
</svg>
